<mxfile host="app.diagrams.net" modified="2024-06-16T00:34:30.187Z" agent="Mozilla/5.0 (Windows NT 10.0; Win64; x64) AppleWebKit/537.36 (KHTML, like Gecko) Chrome/126.0.0.0 Safari/537.36 Edg/126.0.0.0" etag="B2ALEz3BVM_yQxsv7JJw" version="24.4.4" type="device">
  <diagram name="Страница — 1" id="tw6nz9BPU3oKYzFPbhGw">
    <mxGraphModel dx="1103" dy="694" grid="1" gridSize="10" guides="1" tooltips="1" connect="1" arrows="1" fold="1" page="1" pageScale="1" pageWidth="827" pageHeight="1169" math="0" shadow="0">
      <root>
        <mxCell id="0" />
        <mxCell id="1" parent="0" />
        <mxCell id="M6_bAgoeMVK9RfJCk6IN-49" style="edgeStyle=orthogonalEdgeStyle;rounded=0;orthogonalLoop=1;jettySize=auto;html=1;exitX=1;exitY=0.5;exitDx=0;exitDy=0;exitPerimeter=0;entryX=0;entryY=0.5;entryDx=0;entryDy=0;strokeColor=#A9C4EB;strokeWidth=4;align=center;verticalAlign=middle;fontFamily=Helvetica;fontSize=11;fontColor=default;labelBackgroundColor=default;endArrow=classic;curved=0;" edge="1" parent="1" source="M6_bAgoeMVK9RfJCk6IN-37" target="M6_bAgoeMVK9RfJCk6IN-41">
          <mxGeometry relative="1" as="geometry" />
        </mxCell>
        <mxCell id="M6_bAgoeMVK9RfJCk6IN-37" value="Запуск игры" style="strokeWidth=2;html=1;shape=mxgraph.flowchart.start_1;whiteSpace=wrap;fontSize=22;fillColor=#f8cecc;strokeColor=#b85450;fontColor=#A680B8;fontFamily=Times New Roman;fontStyle=1" vertex="1" parent="1">
          <mxGeometry x="80" y="80" width="100" height="80" as="geometry" />
        </mxCell>
        <mxCell id="M6_bAgoeMVK9RfJCk6IN-50" style="edgeStyle=orthogonalEdgeStyle;rounded=0;orthogonalLoop=1;jettySize=auto;html=1;exitX=1;exitY=0.5;exitDx=0;exitDy=0;entryX=0;entryY=0.5;entryDx=0;entryDy=0;" edge="1" parent="1" source="M6_bAgoeMVK9RfJCk6IN-41" target="M6_bAgoeMVK9RfJCk6IN-43">
          <mxGeometry relative="1" as="geometry" />
        </mxCell>
        <mxCell id="M6_bAgoeMVK9RfJCk6IN-41" value="DataLoader" style="rounded=1;whiteSpace=wrap;html=1;absoluteArcSize=1;arcSize=14;strokeWidth=2;fillColor=#ffe6cc;strokeColor=#d79b00;fontSize=22;align=center;verticalAlign=middle;fontFamily=Times New Roman;fontStyle=3;fontColor=#CDA2BE;" vertex="1" parent="1">
          <mxGeometry x="230" y="80" width="120" height="80" as="geometry" />
        </mxCell>
        <mxCell id="M6_bAgoeMVK9RfJCk6IN-51" style="edgeStyle=orthogonalEdgeStyle;rounded=0;orthogonalLoop=1;jettySize=auto;html=1;exitX=1;exitY=0.5;exitDx=0;exitDy=0;entryX=0;entryY=0.5;entryDx=0;entryDy=0;" edge="1" parent="1" source="M6_bAgoeMVK9RfJCk6IN-43" target="M6_bAgoeMVK9RfJCk6IN-46">
          <mxGeometry relative="1" as="geometry" />
        </mxCell>
        <mxCell id="M6_bAgoeMVK9RfJCk6IN-43" value="Данные" style="shape=parallelogram;html=1;strokeWidth=2;perimeter=parallelogramPerimeter;whiteSpace=wrap;rounded=1;arcSize=14;size=0.23;strokeColor=#d79b00;align=center;verticalAlign=middle;fontFamily=Times New Roman;fontSize=22;fontColor=#CDA2BE;fontStyle=1;fillColor=#ffe6cc;" vertex="1" parent="1">
          <mxGeometry x="390" y="85" width="140" height="70" as="geometry" />
        </mxCell>
        <mxCell id="M6_bAgoeMVK9RfJCk6IN-46" value="Начальная сцена" style="rounded=1;whiteSpace=wrap;html=1;absoluteArcSize=1;arcSize=14;strokeWidth=2;strokeColor=#A680B8;align=center;verticalAlign=middle;fontFamily=Times New Roman;fontSize=22;fontStyle=1;fillColor=#dae8fc;shadow=0;fontColor=#67AB9F;" vertex="1" parent="1">
          <mxGeometry x="570" y="70" width="120" height="100" as="geometry" />
        </mxCell>
        <mxCell id="M6_bAgoeMVK9RfJCk6IN-116" style="edgeStyle=orthogonalEdgeStyle;rounded=0;orthogonalLoop=1;jettySize=auto;html=1;exitX=0;exitY=0.5;exitDx=0;exitDy=0;exitPerimeter=0;entryX=1;entryY=0.5;entryDx=0;entryDy=0;" edge="1" parent="1" source="M6_bAgoeMVK9RfJCk6IN-48" target="M6_bAgoeMVK9RfJCk6IN-101">
          <mxGeometry relative="1" as="geometry" />
        </mxCell>
        <mxCell id="M6_bAgoeMVK9RfJCk6IN-122" style="edgeStyle=orthogonalEdgeStyle;rounded=0;orthogonalLoop=1;jettySize=auto;html=1;exitX=1;exitY=0.5;exitDx=0;exitDy=0;exitPerimeter=0;entryX=0;entryY=0.5;entryDx=0;entryDy=0;" edge="1" parent="1" source="M6_bAgoeMVK9RfJCk6IN-48" target="M6_bAgoeMVK9RfJCk6IN-88">
          <mxGeometry relative="1" as="geometry" />
        </mxCell>
        <mxCell id="M6_bAgoeMVK9RfJCk6IN-48" value="Запуск игровой сцены" style="strokeWidth=2;html=1;shape=mxgraph.flowchart.decision;whiteSpace=wrap;" vertex="1" parent="1">
          <mxGeometry x="480" y="310" width="130" height="120" as="geometry" />
        </mxCell>
        <mxCell id="M6_bAgoeMVK9RfJCk6IN-107" style="edgeStyle=orthogonalEdgeStyle;rounded=0;orthogonalLoop=1;jettySize=auto;html=1;exitX=0;exitY=0.5;exitDx=0;exitDy=0;exitPerimeter=0;entryX=1;entryY=0.5;entryDx=0;entryDy=0;" edge="1" parent="1" source="M6_bAgoeMVK9RfJCk6IN-54" target="M6_bAgoeMVK9RfJCk6IN-57">
          <mxGeometry relative="1" as="geometry" />
        </mxCell>
        <mxCell id="M6_bAgoeMVK9RfJCk6IN-110" style="edgeStyle=orthogonalEdgeStyle;rounded=0;orthogonalLoop=1;jettySize=auto;html=1;exitX=1;exitY=0.5;exitDx=0;exitDy=0;exitPerimeter=0;entryX=0;entryY=0.5;entryDx=0;entryDy=0;" edge="1" parent="1" source="M6_bAgoeMVK9RfJCk6IN-54" target="M6_bAgoeMVK9RfJCk6IN-61">
          <mxGeometry relative="1" as="geometry" />
        </mxCell>
        <mxCell id="M6_bAgoeMVK9RfJCk6IN-54" value="Играть" style="strokeWidth=2;html=1;shape=mxgraph.flowchart.decision;whiteSpace=wrap;" vertex="1" parent="1">
          <mxGeometry x="300" y="210" width="130" height="120" as="geometry" />
        </mxCell>
        <mxCell id="M6_bAgoeMVK9RfJCk6IN-56" value="Выход из игры" style="strokeWidth=2;html=1;shape=mxgraph.flowchart.start_1;whiteSpace=wrap;fontSize=22;fillColor=#f8cecc;strokeColor=#b85450;fontColor=#A680B8;fontFamily=Times New Roman;fontStyle=1" vertex="1" parent="1">
          <mxGeometry x="70" y="510" width="120" height="80" as="geometry" />
        </mxCell>
        <mxCell id="M6_bAgoeMVK9RfJCk6IN-96" style="edgeStyle=orthogonalEdgeStyle;rounded=0;orthogonalLoop=1;jettySize=auto;html=1;exitX=0;exitY=0.5;exitDx=0;exitDy=0;" edge="1" parent="1" source="M6_bAgoeMVK9RfJCk6IN-57" target="M6_bAgoeMVK9RfJCk6IN-94">
          <mxGeometry relative="1" as="geometry" />
        </mxCell>
        <mxCell id="M6_bAgoeMVK9RfJCk6IN-57" value="Нет" style="text;html=1;align=center;verticalAlign=middle;whiteSpace=wrap;rounded=0;" vertex="1" parent="1">
          <mxGeometry x="210" y="255" width="60" height="30" as="geometry" />
        </mxCell>
        <mxCell id="M6_bAgoeMVK9RfJCk6IN-61" value="Да" style="text;html=1;align=center;verticalAlign=middle;whiteSpace=wrap;rounded=0;" vertex="1" parent="1">
          <mxGeometry x="460" y="255" width="60" height="30" as="geometry" />
        </mxCell>
        <mxCell id="M6_bAgoeMVK9RfJCk6IN-117" style="edgeStyle=orthogonalEdgeStyle;rounded=0;orthogonalLoop=1;jettySize=auto;html=1;exitX=0.5;exitY=1;exitDx=0;exitDy=0;entryX=0.5;entryY=0;entryDx=0;entryDy=0;" edge="1" parent="1" source="M6_bAgoeMVK9RfJCk6IN-88" target="M6_bAgoeMVK9RfJCk6IN-98">
          <mxGeometry relative="1" as="geometry">
            <mxPoint x="690" y="410" as="targetPoint" />
          </mxGeometry>
        </mxCell>
        <mxCell id="M6_bAgoeMVK9RfJCk6IN-88" value="Загрузка игры" style="text;html=1;align=center;verticalAlign=middle;whiteSpace=wrap;rounded=0;" vertex="1" parent="1">
          <mxGeometry x="670" y="355" width="60" height="30" as="geometry" />
        </mxCell>
        <mxCell id="M6_bAgoeMVK9RfJCk6IN-91" value="DataSaver" style="rounded=1;whiteSpace=wrap;html=1;absoluteArcSize=1;arcSize=14;strokeWidth=2;fillColor=#ffe6cc;strokeColor=#d79b00;fontSize=22;align=center;verticalAlign=middle;fontFamily=Times New Roman;fontStyle=3;fontColor=#CDA2BE;" vertex="1" parent="1">
          <mxGeometry x="70" y="400" width="120" height="80" as="geometry" />
        </mxCell>
        <mxCell id="M6_bAgoeMVK9RfJCk6IN-108" style="edgeStyle=orthogonalEdgeStyle;rounded=0;orthogonalLoop=1;jettySize=auto;html=1;exitX=0.5;exitY=1;exitDx=0;exitDy=0;entryX=0.5;entryY=0;entryDx=0;entryDy=0;" edge="1" parent="1" source="M6_bAgoeMVK9RfJCk6IN-94" target="M6_bAgoeMVK9RfJCk6IN-91">
          <mxGeometry relative="1" as="geometry" />
        </mxCell>
        <mxCell id="M6_bAgoeMVK9RfJCk6IN-94" value="Данные" style="shape=parallelogram;html=1;strokeWidth=2;perimeter=parallelogramPerimeter;whiteSpace=wrap;rounded=1;arcSize=14;size=0.23;strokeColor=#d79b00;align=center;verticalAlign=middle;fontFamily=Times New Roman;fontSize=22;fontColor=#CDA2BE;fontStyle=1;fillColor=#ffe6cc;" vertex="1" parent="1">
          <mxGeometry x="60" y="300" width="140" height="70" as="geometry" />
        </mxCell>
        <mxCell id="M6_bAgoeMVK9RfJCk6IN-118" style="edgeStyle=orthogonalEdgeStyle;rounded=0;orthogonalLoop=1;jettySize=auto;html=1;exitX=0.5;exitY=1;exitDx=0;exitDy=0;entryX=0.5;entryY=0;entryDx=0;entryDy=0;" edge="1" parent="1" source="M6_bAgoeMVK9RfJCk6IN-98" target="M6_bAgoeMVK9RfJCk6IN-103">
          <mxGeometry relative="1" as="geometry" />
        </mxCell>
        <mxCell id="M6_bAgoeMVK9RfJCk6IN-98" value="Данные" style="shape=parallelogram;html=1;strokeWidth=2;perimeter=parallelogramPerimeter;whiteSpace=wrap;rounded=1;arcSize=14;size=0.23;strokeColor=#d79b00;align=center;verticalAlign=middle;fontFamily=Times New Roman;fontSize=22;fontColor=#CDA2BE;fontStyle=1;fillColor=#ffe6cc;" vertex="1" parent="1">
          <mxGeometry x="630" y="420" width="140" height="70" as="geometry" />
        </mxCell>
        <mxCell id="M6_bAgoeMVK9RfJCk6IN-127" style="edgeStyle=orthogonalEdgeStyle;rounded=0;orthogonalLoop=1;jettySize=auto;html=1;exitX=0.5;exitY=1;exitDx=0;exitDy=0;entryX=0.5;entryY=0;entryDx=0;entryDy=0;" edge="1" parent="1" source="M6_bAgoeMVK9RfJCk6IN-101" target="M6_bAgoeMVK9RfJCk6IN-126">
          <mxGeometry relative="1" as="geometry" />
        </mxCell>
        <mxCell id="M6_bAgoeMVK9RfJCk6IN-101" value="Новая игра" style="text;html=1;align=center;verticalAlign=middle;whiteSpace=wrap;rounded=0;" vertex="1" parent="1">
          <mxGeometry x="354" y="355" width="60" height="30" as="geometry" />
        </mxCell>
        <mxCell id="M6_bAgoeMVK9RfJCk6IN-125" style="edgeStyle=orthogonalEdgeStyle;rounded=0;orthogonalLoop=1;jettySize=auto;html=1;exitX=0.5;exitY=1;exitDx=0;exitDy=0;entryX=0.5;entryY=0;entryDx=0;entryDy=0;" edge="1" parent="1" source="M6_bAgoeMVK9RfJCk6IN-103" target="M6_bAgoeMVK9RfJCk6IN-124">
          <mxGeometry relative="1" as="geometry" />
        </mxCell>
        <mxCell id="M6_bAgoeMVK9RfJCk6IN-103" value="Game States Panel Displayer" style="rounded=1;whiteSpace=wrap;html=1;absoluteArcSize=1;arcSize=14;strokeWidth=2;fillColor=#ffe6cc;strokeColor=#d79b00;fontSize=22;align=center;verticalAlign=middle;fontFamily=Times New Roman;fontStyle=3;fontColor=#CDA2BE;" vertex="1" parent="1">
          <mxGeometry x="630" y="520" width="140" height="90" as="geometry" />
        </mxCell>
        <mxCell id="M6_bAgoeMVK9RfJCk6IN-106" style="edgeStyle=orthogonalEdgeStyle;rounded=0;orthogonalLoop=1;jettySize=auto;html=1;exitX=0.5;exitY=1;exitDx=0;exitDy=0;entryX=0.5;entryY=0;entryDx=0;entryDy=0;entryPerimeter=0;" edge="1" parent="1" source="M6_bAgoeMVK9RfJCk6IN-46" target="M6_bAgoeMVK9RfJCk6IN-54">
          <mxGeometry relative="1" as="geometry" />
        </mxCell>
        <mxCell id="M6_bAgoeMVK9RfJCk6IN-109" style="edgeStyle=orthogonalEdgeStyle;rounded=0;orthogonalLoop=1;jettySize=auto;html=1;exitX=0.5;exitY=1;exitDx=0;exitDy=0;entryX=0.5;entryY=0;entryDx=0;entryDy=0;entryPerimeter=0;" edge="1" parent="1" source="M6_bAgoeMVK9RfJCk6IN-91" target="M6_bAgoeMVK9RfJCk6IN-56">
          <mxGeometry relative="1" as="geometry" />
        </mxCell>
        <mxCell id="M6_bAgoeMVK9RfJCk6IN-119" style="edgeStyle=orthogonalEdgeStyle;rounded=0;orthogonalLoop=1;jettySize=auto;html=1;exitX=1;exitY=0.5;exitDx=0;exitDy=0;entryX=0.5;entryY=0;entryDx=0;entryDy=0;entryPerimeter=0;" edge="1" parent="1" source="M6_bAgoeMVK9RfJCk6IN-61" target="M6_bAgoeMVK9RfJCk6IN-48">
          <mxGeometry relative="1" as="geometry" />
        </mxCell>
        <mxCell id="M6_bAgoeMVK9RfJCk6IN-129" style="edgeStyle=orthogonalEdgeStyle;rounded=0;orthogonalLoop=1;jettySize=auto;html=1;exitX=0;exitY=0.5;exitDx=0;exitDy=0;entryX=1;entryY=0.5;entryDx=0;entryDy=0;" edge="1" parent="1" source="M6_bAgoeMVK9RfJCk6IN-124" target="M6_bAgoeMVK9RfJCk6IN-128">
          <mxGeometry relative="1" as="geometry" />
        </mxCell>
        <mxCell id="M6_bAgoeMVK9RfJCk6IN-124" value="Данные" style="shape=parallelogram;html=1;strokeWidth=2;perimeter=parallelogramPerimeter;whiteSpace=wrap;rounded=1;arcSize=14;size=0.23;strokeColor=#d79b00;align=center;verticalAlign=middle;fontFamily=Times New Roman;fontSize=22;fontColor=#CDA2BE;fontStyle=1;fillColor=#ffe6cc;" vertex="1" parent="1">
          <mxGeometry x="630" y="640" width="140" height="70" as="geometry" />
        </mxCell>
        <mxCell id="M6_bAgoeMVK9RfJCk6IN-130" style="edgeStyle=orthogonalEdgeStyle;rounded=0;orthogonalLoop=1;jettySize=auto;html=1;exitX=1;exitY=0.5;exitDx=0;exitDy=0;entryX=0;entryY=0.5;entryDx=0;entryDy=0;" edge="1" parent="1" source="M6_bAgoeMVK9RfJCk6IN-126" target="M6_bAgoeMVK9RfJCk6IN-128">
          <mxGeometry relative="1" as="geometry" />
        </mxCell>
        <mxCell id="M6_bAgoeMVK9RfJCk6IN-126" value="Данные" style="shape=parallelogram;html=1;strokeWidth=2;perimeter=parallelogramPerimeter;whiteSpace=wrap;rounded=1;arcSize=14;size=0.23;strokeColor=#d79b00;align=center;verticalAlign=middle;fontFamily=Times New Roman;fontSize=22;fontColor=#CDA2BE;fontStyle=1;fillColor=#ffe6cc;" vertex="1" parent="1">
          <mxGeometry x="314" y="640" width="140" height="70" as="geometry" />
        </mxCell>
        <mxCell id="M6_bAgoeMVK9RfJCk6IN-135" style="edgeStyle=orthogonalEdgeStyle;rounded=0;orthogonalLoop=1;jettySize=auto;html=1;exitX=0.5;exitY=1;exitDx=0;exitDy=0;entryX=0.5;entryY=0;entryDx=0;entryDy=0;" edge="1" parent="1" source="M6_bAgoeMVK9RfJCk6IN-128" target="M6_bAgoeMVK9RfJCk6IN-134">
          <mxGeometry relative="1" as="geometry" />
        </mxCell>
        <mxCell id="M6_bAgoeMVK9RfJCk6IN-128" value="Data Container" style="rounded=1;whiteSpace=wrap;html=1;absoluteArcSize=1;arcSize=14;strokeWidth=2;fillColor=#ffe6cc;strokeColor=#d79b00;fontSize=22;align=center;verticalAlign=middle;fontFamily=Times New Roman;fontStyle=3;fontColor=#CDA2BE;" vertex="1" parent="1">
          <mxGeometry x="475" y="630" width="140" height="90" as="geometry" />
        </mxCell>
        <mxCell id="M6_bAgoeMVK9RfJCk6IN-133" value="Игровая сцена" style="rounded=1;whiteSpace=wrap;html=1;absoluteArcSize=1;arcSize=14;strokeWidth=2;strokeColor=#A680B8;align=center;verticalAlign=middle;fontFamily=Times New Roman;fontSize=22;fontStyle=1;fillColor=#dae8fc;shadow=0;fontColor=#67AB9F;" vertex="1" parent="1">
          <mxGeometry x="485" y="1000" width="120" height="100" as="geometry" />
        </mxCell>
        <mxCell id="M6_bAgoeMVK9RfJCk6IN-138" style="edgeStyle=orthogonalEdgeStyle;rounded=0;orthogonalLoop=1;jettySize=auto;html=1;exitX=0.5;exitY=1;exitDx=0;exitDy=0;entryX=0.5;entryY=0;entryDx=0;entryDy=0;" edge="1" parent="1" source="M6_bAgoeMVK9RfJCk6IN-134" target="M6_bAgoeMVK9RfJCk6IN-137">
          <mxGeometry relative="1" as="geometry" />
        </mxCell>
        <mxCell id="M6_bAgoeMVK9RfJCk6IN-134" value="Данные" style="shape=parallelogram;html=1;strokeWidth=2;perimeter=parallelogramPerimeter;whiteSpace=wrap;rounded=1;arcSize=14;size=0.23;strokeColor=#d79b00;align=center;verticalAlign=middle;fontFamily=Times New Roman;fontSize=22;fontColor=#CDA2BE;fontStyle=1;fillColor=#ffe6cc;" vertex="1" parent="1">
          <mxGeometry x="475" y="760" width="140" height="70" as="geometry" />
        </mxCell>
        <mxCell id="M6_bAgoeMVK9RfJCk6IN-139" style="edgeStyle=orthogonalEdgeStyle;rounded=0;orthogonalLoop=1;jettySize=auto;html=1;exitX=0.5;exitY=1;exitDx=0;exitDy=0;entryX=0.5;entryY=0;entryDx=0;entryDy=0;" edge="1" parent="1" source="M6_bAgoeMVK9RfJCk6IN-137" target="M6_bAgoeMVK9RfJCk6IN-133">
          <mxGeometry relative="1" as="geometry" />
        </mxCell>
        <mxCell id="M6_bAgoeMVK9RfJCk6IN-137" value="Game State Ganerator" style="rounded=1;whiteSpace=wrap;html=1;absoluteArcSize=1;arcSize=14;strokeWidth=2;fillColor=#ffe6cc;strokeColor=#d79b00;fontSize=22;align=center;verticalAlign=middle;fontFamily=Times New Roman;fontStyle=3;fontColor=#CDA2BE;" vertex="1" parent="1">
          <mxGeometry x="475" y="870" width="140" height="90" as="geometry" />
        </mxCell>
      </root>
    </mxGraphModel>
  </diagram>
</mxfile>
